# xmcd
# 
# Track frame offsets:
#     150
#     11127
#     27289
#     38966
#     49918
#     64395
#     81509
#     92461
#     120891
#     135993
#     155463
#     170952
#     188207
#     203264
#     213991
#     230440
#     247092
#     269179
#     281969
#     294013
#     305002
# 
# Disc length: 4312
# 
# Revision: 0
# Processed by: cddbd v1.5.2PL0 Copyright (c) Steve Scherf et al.
# Submitted via: fre:ac v1.0.17
# 
DISCID=3610d615
DTITLE=Rory Block - High Heeled Blues
DYEAR=0
DGENRE=Blues
TTITLE0=Achin' Heart
TTITLE1=Bright Spirit
TTITLE2=Crossroad Blues
TTITLE3=Devil Got My Man
TTITLE4=Down in the Dumps
TTITLE5=Gone Woman Blues
TTITLE6=Got To Have You Be My Man
TTITLE7=Indian Ernie
TTITLE8=Kind Hearted Man
TTITLE9=Like A Shotgun
TTITLE10=Mississippi Bottom Blues
TTITLE11=Pictures of You
TTITLE12=Rosaline
TTITLE13=Since You Been Gone
TTITLE14=That's All Right
TTITLE15=The Water is Wide
TTITLE16=Tornado
TTITLE17=Travelin' Blues
TTITLE18=Uncloudy Day
TTITLE19=Walkin' Blues
TTITLE20=You Didn't Mind
EXTD=
EXTT0=
EXTT1=
EXTT2=
EXTT3=
EXTT4=
EXTT5=
EXTT6=
EXTT7=
EXTT8=
EXTT9=
EXTT10=
EXTT11=
EXTT12=
EXTT13=
EXTT14=
EXTT15=
EXTT16=
EXTT17=
EXTT18=
EXTT19=
EXTT20=
PLAYORDER=
